<?xml version="1.0" encoding="utf-8"?>
<svg version="1.1" xmlns:xlink="http://www.w3.org/1999/xlink" width="30px" height="30px" xmlns="http://www.w3.org/2000/svg">
  <g transform="matrix(1 0 0 1 -1276 -31 )">
    <path d="M 1276 31  L 1306 31  L 1306 61  L 1276 61  L 1276 31  " fill-rule="nonzero" fill="#cccccc" stroke="none" />
    <path d="M 1278 33  L 1304 33  L 1304 59  L 1278 59  L 1278 33  " fill-rule="nonzero" fill="#ffffff" stroke="none" />
    <path d="M 1293.85 40  C 1292.59 40  1291.6 39.01  1291.6 37.75  C 1291.6 36.49  1292.59 35.5  1293.85 35.5  C 1295.11 35.5  1296.1 36.49  1296.1 37.75  C 1296.1 39.01  1295.11 40  1293.85 40  " fill-rule="nonzero" fill="#cccccc" stroke="none" />
    <path d="M 1279 58  L 1279 44.8  L 1285 38.8  L 1293.4 43.6  L 1298.2 42.4  L 1303 43.6  L 1303 58  L 1279 58  " fill-rule="nonzero" fill="#169bd5" stroke="none" />
  </g>
</svg>