<?xml version="1.0" encoding="utf-8"?>
<svg version="1.1" xmlns:xlink="http://www.w3.org/1999/xlink" width="340px" height="45px" xmlns="http://www.w3.org/2000/svg">
  <g transform="matrix(1 0 0 1 -50 -293 )">
    <path d="M 50.5 315.5  A 22 22 0 0 1 72.5 293.5 L 367.5 293.5  A 22 22 0 0 1 389.5 315.5 A 22 22 0 0 1 367.5 337.5 L 72.5 337.5  A 22 22 0 0 1 50.5 315.5 Z " fill-rule="nonzero" fill="#eaeaf6" stroke="none" fill-opacity="0" />
    <path d="M 50.5 315.5  A 22 22 0 0 1 72.5 293.5 L 367.5 293.5  A 22 22 0 0 1 389.5 315.5 A 22 22 0 0 1 367.5 337.5 L 72.5 337.5  A 22 22 0 0 1 50.5 315.5 Z " stroke-width="1" stroke="#be2e36" fill="none" />
  </g>
</svg>