<?xml version="1.0" encoding="utf-8"?>
<svg version="1.1" xmlns:xlink="http://www.w3.org/1999/xlink" width="340px" height="45px" xmlns="http://www.w3.org/2000/svg">
  <g transform="matrix(1 0 0 1 -50 -293 )">
    <path d="M 51 315.5  A 21.5 21.5 0 0 1 72.5 294 L 367.5 294  A 21.5 21.5 0 0 1 389 315.5 A 21.5 21.5 0 0 1 367.5 337 L 72.5 337  A 21.5 21.5 0 0 1 51 315.5 Z " fill-rule="nonzero" fill="#eaeaf6" stroke="none" fill-opacity="0" />
    <path d="M 50.5 315.5  A 22 22 0 0 1 72.5 293.5 L 367.5 293.5  A 22 22 0 0 1 389.5 315.5 A 22 22 0 0 1 367.5 337.5 L 72.5 337.5  A 22 22 0 0 1 50.5 315.5 Z " stroke-width="1" stroke="#575575" fill="none" stroke-opacity="0.996078431372549" />
  </g>
</svg>