<?xml version="1.0" encoding="utf-8"?>
<svg version="1.1" xmlns:xlink="http://www.w3.org/1999/xlink" width="386px" height="36px" viewBox="182 124  386 36" xmlns="http://www.w3.org/2000/svg">
  <path d="M 184 127  A 1 1 0 0 1 185 126 L 565 126  A 1 1 0 0 1 566 127 L 566 157  A 1 1 0 0 1 565 158 L 185 158  A 1 1 0 0 1 184 157 L 184 127  Z " fill-rule="nonzero" fill="#ffffff" stroke="none" fill-opacity="0" />
  <path d="M 183 127  A 2 2 0 0 1 185 125 L 565 125  A 2 2 0 0 1 567 127 L 567 157  A 2 2 0 0 1 565 159 L 185 159  A 2 2 0 0 1 183 157 L 183 127  Z " stroke-width="2" stroke="#4e4c64" fill="none" stroke-opacity="0.996078431372549" />
</svg>