<?xml version="1.0" encoding="utf-8"?>
<svg version="1.1" xmlns:xlink="http://www.w3.org/1999/xlink" width="36px" height="36px" xmlns="http://www.w3.org/2000/svg">
  <g transform="matrix(1 0 0 1 -221 -177 )">
    <path d="M 223 182  A 3 3 0 0 1 226 179 L 252 179  A 3 3 0 0 1 255 182 L 255 208  A 3 3 0 0 1 252 211 L 226 211  A 3 3 0 0 1 223 208 L 223 182  Z " fill-rule="nonzero" fill="#f59e00" stroke="none" />
    <path d="M 222 182  A 4 4 0 0 1 226 178 L 252 178  A 4 4 0 0 1 256 182 L 256 208  A 4 4 0 0 1 252 212 L 226 212  A 4 4 0 0 1 222 208 L 222 182  Z " stroke-width="2" stroke="#f59e00" fill="none" stroke-opacity="0.996078431372549" />
  </g>
</svg>