<?xml version="1.0" encoding="utf-8"?>
<svg version="1.1" xmlns:xlink="http://www.w3.org/1999/xlink" width="24px" height="15px" xmlns="http://www.w3.org/2000/svg">
  <g transform="matrix(1 0 0 1 -34 -61 )">
    <path d="M 35 64  A 2 2 0 0 1 37 62 L 55 62  A 2 2 0 0 1 57 64 L 57 73  A 2 2 0 0 1 55 75 L 37 75  A 2 2 0 0 1 35 73 L 35 64  Z " fill-rule="nonzero" fill="#575575" stroke="none" fill-opacity="0" />
    <path d="M 34.5 64  A 2.5 2.5 0 0 1 37 61.5 L 55 61.5  A 2.5 2.5 0 0 1 57.5 64 L 57.5 73  A 2.5 2.5 0 0 1 55 75.5 L 37 75.5  A 2.5 2.5 0 0 1 34.5 73 L 34.5 64  Z " stroke-width="1" stroke="#d7d7d7" fill="none" stroke-opacity="0.996078431372549" />
  </g>
</svg>