<?xml version="1.0" encoding="utf-8"?>
<svg version="1.1" xmlns:xlink="http://www.w3.org/1999/xlink" width="120px" height="120px" xmlns="http://www.w3.org/2000/svg">
  <g transform="matrix(1 0 0 1 -308 -120 )">
    <path d="M 308 120  L 428 120  L 428 240  L 308 240  L 308 120  " fill-rule="nonzero" fill="#cccccc" stroke="none" />
    <path d="M 316 128  L 420 128  L 420 232  L 316 232  L 316 128  " fill-rule="nonzero" fill="#ffffff" stroke="none" />
    <path d="M 379.4 156  C 374.36 156  370.4 152.04  370.4 147  C 370.4 141.96  374.36 138  379.4 138  C 384.44 138  388.4 141.96  388.4 147  C 388.4 152.04  384.44 156  379.4 156  " fill-rule="nonzero" fill="#cccccc" stroke="none" />
    <path d="M 319 229  L 319 175.1  L 343.5 150.6  L 377.8 170.2  L 397.4 165.3  L 417 170.2  L 417 229  L 319 229  " fill-rule="nonzero" fill="#169bd5" stroke="none" />
  </g>
</svg>