<?xml version="1.0" encoding="utf-8"?>
<svg version="1.1" xmlns:xlink="http://www.w3.org/1999/xlink" width="19px" height="5px" xmlns="http://www.w3.org/2000/svg">
  <g transform="matrix(1 0 0 1 -511 -1372 )">
    <path d="M 18.809619238477 4.0893470790378  C 18.936539746159 4.14662084765177  19 4.21248568155785  19 4.28694158075601  C 19 4.36139747995418  18.936539746159 4.42726231386025  18.809619238477 4.48453608247423  L 17.8577154308617 4.91408934707904  C 17.7307949231797 4.97136311569301  17.5848363393454 5  17.4198396793587 5  C 17.2548430193721 5  17.1088844355377 4.97136311569301  16.9819639278557 4.91408934707904  L 9.5 1.53780068728522  L 2.01803607214429 4.91408934707904  C 1.89111556446226 4.97136311569301  1.74515698062792 5  1.58016032064128 5  C 1.41516366065464 5  1.26920507682031 4.97136311569301  1.14228456913828 4.91408934707904  L 0.190380761523046 4.48453608247423  C 0.0634602538410155 4.42726231386025  0 4.36139747995418  0 4.28694158075601  C 0 4.21248568155785  0.0634602538410155 4.14662084765177  0.190380761523046 4.0893470790378  L 9.06212424849699 0.0859106529209624  C 9.18904475617903 0.0286368843069867  9.33500334001336 0  9.5 0  C 9.66499665998664 0  9.81095524382098 0.0286368843069867  9.93787575150301 0.0859106529209624  L 18.809619238477 4.0893470790378  Z " fill-rule="nonzero" fill="#f2a797" stroke="none" transform="matrix(1 0 0 1 511 1372 )" />
  </g>
</svg>