<?xml version="1.0" encoding="utf-8"?>
<svg version="1.1" xmlns:xlink="http://www.w3.org/1999/xlink" width="1093px" height="248px" xmlns="http://www.w3.org/2000/svg">
  <g transform="matrix(1 0 0 1 -27 -76 )">
    <path d="M 28 79  A 2 2 0 0 1 30 77 L 1117 77  A 2 2 0 0 1 1119 79 L 1119 321  A 2 2 0 0 1 1117 323 L 30 323  A 2 2 0 0 1 28 321 L 28 79  Z " fill-rule="nonzero" fill="#ffffff" stroke="none" fill-opacity="0.996078431372549" />
    <path d="M 27.5 79  A 2.5 2.5 0 0 1 30 76.5 L 1117 76.5  A 2.5 2.5 0 0 1 1119.5 79 L 1119.5 321  A 2.5 2.5 0 0 1 1117 323.5 L 30 323.5  A 2.5 2.5 0 0 1 27.5 321 L 27.5 79  Z " stroke-width="1" stroke="#d7d7d7" fill="none" stroke-opacity="0.752941176470588" />
  </g>
</svg>