<?xml version="1.0" encoding="utf-8"?>
<svg version="1.1" xmlns:xlink="http://www.w3.org/1999/xlink" width="1093px" height="228px" xmlns="http://www.w3.org/2000/svg">
  <g>
    <path d="M 1 10  A 9 9 0 0 1 10 1 L 1083 1  A 9 9 0 0 1 1092 10 L 1092 218  A 9 9 0 0 1 1083 227 L 10 227  A 9 9 0 0 1 1 218 L 1 10  Z " fill-rule="nonzero" fill="#f8f8f8" stroke="none" />
    <path d="M 0.5 10  A 9.5 9.5 0 0 1 10 0.5 L 1083 0.5  A 9.5 9.5 0 0 1 1092.5 10 L 1092.5 218  A 9.5 9.5 0 0 1 1083 227.5 L 10 227.5  A 9.5 9.5 0 0 1 0.5 218 L 0.5 10  Z " stroke-width="1" stroke="#d7d7d7" fill="none" stroke-opacity="0.752941176470588" />
  </g>
</svg>