<?xml version="1.0" encoding="utf-8"?>
<svg version="1.1" xmlns:xlink="http://www.w3.org/1999/xlink" width="1113px" height="275px" xmlns="http://www.w3.org/2000/svg">
  <defs>
    <filter x="17px" y="68px" width="1113px" height="275px" filterUnits="userSpaceOnUse" id="filter34">
      <feOffset dx="0" dy="2" in="SourceAlpha" result="shadowOffsetInner" />
      <feGaussianBlur stdDeviation="5" in="shadowOffsetInner" result="shadowGaussian" />
      <feComposite in2="shadowGaussian" operator="atop" in="SourceAlpha" result="shadowComposite" />
      <feColorMatrix type="matrix" values="0 0 0 0 0.666666666666667  0 0 0 0 0.666666666666667  0 0 0 0 0.666666666666667  0 0 0 0.996078431372549 0  " in="shadowComposite" />
    </filter>
    <g id="widget35">
      <path d="M 28 79  A 2 2 0 0 1 30 77 L 1117 77  A 2 2 0 0 1 1119 79 L 1119 328  A 2 2 0 0 1 1117 330 L 30 330  A 2 2 0 0 1 28 328 L 28 79  Z " fill-rule="nonzero" fill="#ffffff" stroke="none" fill-opacity="0.996078431372549" />
      <path d="M 27.5 79  A 2.5 2.5 0 0 1 30 76.5 L 1117 76.5  A 2.5 2.5 0 0 1 1119.5 79 L 1119.5 328  A 2.5 2.5 0 0 1 1117 330.5 L 30 330.5  A 2.5 2.5 0 0 1 27.5 328 L 27.5 79  Z " stroke-width="1" stroke="#d7d7d7" fill="none" stroke-opacity="0.752941176470588" />
    </g>
  </defs>
  <g transform="matrix(1 0 0 1 -17 -68 )">
    <use xlink:href="#widget35" filter="url(#filter34)" />
    <use xlink:href="#widget35" />
  </g>
</svg>