<?xml version="1.0" encoding="utf-8"?>
<svg version="1.1" xmlns:xlink="http://www.w3.org/1999/xlink" width="100px" height="100px" xmlns="http://www.w3.org/2000/svg">
  <g transform="matrix(1 0 0 1 -622 -51 )">
    <path d="M 622 51  L 722 51  L 722 151  L 622 151  L 622 51  " fill-rule="nonzero" fill="#cccccc" stroke="none" />
    <path d="M 629 58  L 715 58  L 715 144  L 629 144  L 629 58  " fill-rule="nonzero" fill="#ffffff" stroke="none" />
    <path d="M 681.5 81  C 677.3 81  674 77.7  674 73.5  C 674 69.3  677.3 66  681.5 66  C 685.7 66  689 69.3  689 73.5  C 689 77.7  685.7 81  681.5 81  " fill-rule="nonzero" fill="#cccccc" stroke="none" />
    <path d="M 632 142  L 632 97.45  L 652.25 77.2  L 680.6 93.4  L 696.8 89.35  L 713 93.4  L 713 142  L 632 142  " fill-rule="nonzero" fill="#169bd5" stroke="none" />
  </g>
</svg>