<?xml version="1.0" encoding="utf-8"?>
<svg version="1.1" xmlns:xlink="http://www.w3.org/1999/xlink" width="760px" height="228px" xmlns="http://www.w3.org/2000/svg">
  <g transform="matrix(1 0 0 1 1 -10 )">
    <path d="M 0 20  A 9 9 0 0 1 9 11 L 749 11  A 9 9 0 0 1 758 20 L 758 228  A 9 9 0 0 1 749 237 L 9 237  A 9 9 0 0 1 0 228 L 0 20  Z " fill-rule="nonzero" fill="#f8f8f8" stroke="none" />
    <path d="M -0.5 20  A 9.5 9.5 0 0 1 9 10.5 L 749 10.5  A 9.5 9.5 0 0 1 758.5 20 L 758.5 228  A 9.5 9.5 0 0 1 749 237.5 L 9 237.5  A 9.5 9.5 0 0 1 -0.5 228 L -0.5 20  Z " stroke-width="1" stroke="#d7d7d7" fill="none" stroke-opacity="0.752941176470588" />
  </g>
</svg>