<?xml version="1.0" encoding="utf-8"?>
<svg version="1.1" xmlns:xlink="http://www.w3.org/1999/xlink" width="213px" height="43px" viewBox="515 1234  213 43" xmlns="http://www.w3.org/2000/svg">
  <path d="M 515.5 1239  A 4.5 4.5 0 0 1 520 1234.5 L 723 1234.5  A 4.5 4.5 0 0 1 727.5 1239 L 727.5 1272  A 4.5 4.5 0 0 1 723 1276.5 L 520 1276.5  A 4.5 4.5 0 0 1 515.5 1272 L 515.5 1239  Z " fill-rule="nonzero" fill="#ffffff" stroke="none" />
  <path d="M 515.5 1239  A 4.5 4.5 0 0 1 520 1234.5 L 723 1234.5  A 4.5 4.5 0 0 1 727.5 1239 L 727.5 1272  A 4.5 4.5 0 0 1 723 1276.5 L 520 1276.5  A 4.5 4.5 0 0 1 515.5 1272 L 515.5 1239  Z " stroke-width="1" stroke="#333333" fill="none" />
</svg>