<?xml version="1.0" encoding="utf-8"?>
<svg version="1.1" xmlns:xlink="http://www.w3.org/1999/xlink" width="213px" height="43px" viewBox="515 1234  213 43" xmlns="http://www.w3.org/2000/svg">
  <path d="M 516 1239  A 4 4 0 0 1 520 1235 L 723 1235  A 4 4 0 0 1 727 1239 L 727 1272  A 4 4 0 0 1 723 1276 L 520 1276  A 4 4 0 0 1 516 1272 L 516 1239  Z " fill-rule="nonzero" fill="#f0f0f0" stroke="none" />
  <path d="M 515.5 1239  A 4.5 4.5 0 0 1 520 1234.5 L 723 1234.5  A 4.5 4.5 0 0 1 727.5 1239 L 727.5 1272  A 4.5 4.5 0 0 1 723 1276.5 L 520 1276.5  A 4.5 4.5 0 0 1 515.5 1272 L 515.5 1239  Z " stroke-width="1" stroke="#d7d7d7" fill="none" stroke-opacity="0.996078431372549" />
</svg>