<?xml version="1.0" encoding="utf-8"?>
<svg version="1.1" xmlns:xlink="http://www.w3.org/1999/xlink" width="282px" height="66px" xmlns="http://www.w3.org/2000/svg">
  <g transform="matrix(1 0 0 1 -1123 -687 )">
    <path d="M 1125 690  A 1 1 0 0 1 1126 689 L 1402 689  A 1 1 0 0 1 1403 690 L 1403 750  A 1 1 0 0 1 1402 751 L 1126 751  A 1 1 0 0 1 1125 750 L 1125 690  Z " fill-rule="nonzero" fill="#ffffff" stroke="none" fill-opacity="0" />
    <path d="M 1124 690  A 2 2 0 0 1 1126 688 L 1402 688  A 2 2 0 0 1 1404 690 L 1404 750  A 2 2 0 0 1 1402 752 L 1126 752  A 2 2 0 0 1 1124 750 L 1124 690  Z " stroke-width="2" stroke="#f59e00" fill="none" stroke-opacity="0.996078431372549" />
  </g>
</svg>