<?xml version="1.0" encoding="utf-8"?>
<svg version="1.1" xmlns:xlink="http://www.w3.org/1999/xlink" width="232px" height="34px" viewBox="515 923  232 34" xmlns="http://www.w3.org/2000/svg">
  <path d="M 516 926  A 2 2 0 0 1 518 924 L 744 924  A 2 2 0 0 1 746 926 L 746 954  A 2 2 0 0 1 744 956 L 518 956  A 2 2 0 0 1 516 954 L 516 926  Z " fill-rule="nonzero" fill="#f7f7f7" stroke="none" />
  <path d="M 515.5 926  A 2.5 2.5 0 0 1 518 923.5 L 744 923.5  A 2.5 2.5 0 0 1 746.5 926 L 746.5 954  A 2.5 2.5 0 0 1 744 956.5 L 518 956.5  A 2.5 2.5 0 0 1 515.5 954 L 515.5 926  Z " stroke-width="1" stroke="#d7d7d7" fill="none" stroke-opacity="0.996078431372549" />
</svg>