<?xml version="1.0" encoding="utf-8"?>
<svg version="1.1" xmlns:xlink="http://www.w3.org/1999/xlink" width="140px" height="42px" xmlns="http://www.w3.org/2000/svg">
  <g transform="matrix(1 0 0 1 -515 -513 )">
    <path d="M 516 516  A 2 2 0 0 1 518 514 L 652 514  A 2 2 0 0 1 654 516 L 654 552  A 2 2 0 0 1 652 554 L 518 554  A 2 2 0 0 1 516 552 L 516 516  Z " fill-rule="nonzero" fill="#ffffff" stroke="none" />
    <path d="M 515.5 516  A 2.5 2.5 0 0 1 518 513.5 L 652 513.5  A 2.5 2.5 0 0 1 654.5 516 L 654.5 552  A 2.5 2.5 0 0 1 652 554.5 L 518 554.5  A 2.5 2.5 0 0 1 515.5 552 L 515.5 516  Z " stroke-width="1" stroke="#d7d7d7" fill="none" stroke-opacity="0.996078431372549" />
  </g>
</svg>