<?xml version="1.0" encoding="utf-8"?>
<svg version="1.1" xmlns:xlink="http://www.w3.org/1999/xlink" width="519px" height="43px" viewBox="515 1535  519 43" xmlns="http://www.w3.org/2000/svg">
  <path d="M 516 1538  A 2 2 0 0 1 518 1536 L 1031 1536  A 2 2 0 0 1 1033 1538 L 1033 1575  A 2 2 0 0 1 1031 1577 L 518 1577  A 2 2 0 0 1 516 1575 L 516 1538  Z " fill-rule="nonzero" fill="#f0f0f0" stroke="none" />
  <path d="M 515.5 1538  A 2.5 2.5 0 0 1 518 1535.5 L 1031 1535.5  A 2.5 2.5 0 0 1 1033.5 1538 L 1033.5 1575  A 2.5 2.5 0 0 1 1031 1577.5 L 518 1577.5  A 2.5 2.5 0 0 1 515.5 1575 L 515.5 1538  Z " stroke-width="1" stroke="#d7d7d7" fill="none" stroke-opacity="0.996078431372549" />
</svg>