<?xml version="1.0" encoding="utf-8"?>
<svg version="1.1" xmlns:xlink="http://www.w3.org/1999/xlink" width="519px" height="140px" viewBox="515 669  519 140" xmlns="http://www.w3.org/2000/svg">
  <path d="M 516 672  A 2 2 0 0 1 518 670 L 1031 670  A 2 2 0 0 1 1033 672 L 1033 806  A 2 2 0 0 1 1031 808 L 518 808  A 2 2 0 0 1 516 806 L 516 672  Z " fill-rule="nonzero" fill="#f0f0f0" stroke="none" />
  <path d="M 515.5 672  A 2.5 2.5 0 0 1 518 669.5 L 1031 669.5  A 2.5 2.5 0 0 1 1033.5 672 L 1033.5 806  A 2.5 2.5 0 0 1 1031 808.5 L 518 808.5  A 2.5 2.5 0 0 1 515.5 806 L 515.5 672  Z " stroke-width="1" stroke="#d7d7d7" fill="none" stroke-opacity="0.996078431372549" />
</svg>