<?xml version="1.0" encoding="utf-8"?>
<svg version="1.1" xmlns:xlink="http://www.w3.org/1999/xlink" width="157px" height="42px" xmlns="http://www.w3.org/2000/svg">
  <g transform="matrix(1 0 0 1 -515 -1118 )">
    <path d="M 516 1121  A 2 2 0 0 1 518 1119 L 669 1119  A 2 2 0 0 1 671 1121 L 671 1157  A 2 2 0 0 1 669 1159 L 518 1159  A 2 2 0 0 1 516 1157 L 516 1121  Z " fill-rule="nonzero" fill="#ffffff" stroke="none" />
    <path d="M 515.5 1121  A 2.5 2.5 0 0 1 518 1118.5 L 669 1118.5  A 2.5 2.5 0 0 1 671.5 1121 L 671.5 1157  A 2.5 2.5 0 0 1 669 1159.5 L 518 1159.5  A 2.5 2.5 0 0 1 515.5 1157 L 515.5 1121  Z " stroke-width="1" stroke="#d7d7d7" fill="none" stroke-opacity="0.996078431372549" />
  </g>
</svg>