<?xml version="1.0" encoding="utf-8"?>
<svg version="1.1" xmlns:xlink="http://www.w3.org/1999/xlink" width="117px" height="30px" xmlns="http://www.w3.org/2000/svg">
  <g transform="matrix(1 0 0 1 -631 -202 )">
    <path d="M 632 205  A 2 2 0 0 1 634 203 L 745 203  A 2 2 0 0 1 747 205 L 747 229  A 2 2 0 0 1 745 231 L 634 231  A 2 2 0 0 1 632 229 L 632 205  Z " fill-rule="nonzero" fill="#ffffff" stroke="none" />
    <path d="M 631.5 205  A 2.5 2.5 0 0 1 634 202.5 L 745 202.5  A 2.5 2.5 0 0 1 747.5 205 L 747.5 229  A 2.5 2.5 0 0 1 745 231.5 L 634 231.5  A 2.5 2.5 0 0 1 631.5 229 L 631.5 205  Z " stroke-width="1" stroke="#d7d7d7" fill="none" stroke-opacity="0.996078431372549" />
  </g>
</svg>