<?xml version="1.0" encoding="utf-8"?>
<svg version="1.1" xmlns:xlink="http://www.w3.org/1999/xlink" width="772px" height="208px" xmlns="http://www.w3.org/2000/svg">
  <g transform="matrix(1 0 0 1 -1 -10 )">
    <path d="M 2 20  A 9 9 0 0 1 11 11 L 763 11  A 9 9 0 0 1 772 20 L 772 208  A 9 9 0 0 1 763 217 L 11 217  A 9 9 0 0 1 2 208 L 2 20  Z " fill-rule="nonzero" fill="#f8f8f8" stroke="none" />
    <path d="M 1.5 20  A 9.5 9.5 0 0 1 11 10.5 L 763 10.5  A 9.5 9.5 0 0 1 772.5 20 L 772.5 208  A 9.5 9.5 0 0 1 763 217.5 L 11 217.5  A 9.5 9.5 0 0 1 1.5 208 L 1.5 20  Z " stroke-width="1" stroke="#d7d7d7" fill="none" stroke-opacity="0.752941176470588" />
  </g>
</svg>