<?xml version="1.0" encoding="utf-8"?>
<svg version="1.1" xmlns:xlink="http://www.w3.org/1999/xlink" width="568px" height="477px" xmlns="http://www.w3.org/2000/svg">
  <g transform="matrix(1 0 0 1 0 -1560 )">
    <path d="M 1 1565  A 4 4 0 0 1 5 1561 L 563 1561  A 4 4 0 0 1 567 1565 L 567 2032  A 4 4 0 0 1 563 2036 L 5 2036  A 4 4 0 0 1 1 2032 L 1 1565  Z " fill-rule="nonzero" fill="#ffffff" stroke="none" />
    <path d="M 0.5 1565  A 4.5 4.5 0 0 1 5 1560.5 L 563 1560.5  A 4.5 4.5 0 0 1 567.5 1565 L 567.5 2032  A 4.5 4.5 0 0 1 563 2036.5 L 5 2036.5  A 4.5 4.5 0 0 1 0.5 2032 L 0.5 1565  Z " stroke-width="1" stroke="#d7d7d7" fill="none" stroke-opacity="0.752941176470588" />
  </g>
</svg>