<?xml version="1.0" encoding="utf-8"?>
<svg version="1.1" xmlns:xlink="http://www.w3.org/1999/xlink" width="573px" height="439px" xmlns="http://www.w3.org/2000/svg">
  <defs>
    <mask fill="white" id="clip31">
      <path d="M 5 439  C 2.225 439  0 436.775  0 434  L 0 5  C 0 2.225  2.225 0  5 0  L 568 0  C 570.775 0  573 2.225  573 5  L 573 434  C 573 436.775  570.775 439  568 439  " fill-rule="evenodd" />
    </mask>
  </defs>
  <g>
    <path d="M 0 0  L 573 0  L 573 439  L 0 439  L 0 0  " fill-rule="nonzero" fill="#cccccc" stroke="none" mask="url(#clip31)" />
    <path d="M 31 31  L 542 31  L 542 408  L 31 408  L 31 31  " fill-rule="nonzero" fill="#ffffff" stroke="none" mask="url(#clip31)" />
    <path d="M 330.885 131.7  C 312.447 131.7  297.96 117.213  297.96 98.775  C 297.96 80.337  312.447 65.85  330.885 65.85  C 349.323 65.85  363.81 80.337  363.81 98.775  C 363.81 117.213  349.323 131.7  330.885 131.7  " fill-rule="nonzero" fill="#cccccc" stroke="none" mask="url(#clip31)" />
    <path d="M 42 397  L 42 201.75  L 164.25 113  L 335.4 233.811518324607  L 433.2 166.25  L 531 233.811518324607  L 531 397  L 42 397  " fill-rule="nonzero" fill="#169bd5" stroke="none" mask="url(#clip31)" />
  </g>
</svg>