<?xml version="1.0" encoding="utf-8"?>
<svg version="1.1" xmlns:xlink="http://www.w3.org/1999/xlink" width="114px" height="114px" xmlns="http://www.w3.org/2000/svg">
  <g transform="matrix(1 0 0 1 -279 -1867 )">
    <path d="M 279 1867  L 393 1867  L 393 1981  L 279 1981  L 279 1867  " fill-rule="nonzero" fill="#cccccc" stroke="none" />
    <path d="M 287 1875  L 385 1875  L 385 1973  L 287 1973  L 287 1875  " fill-rule="nonzero" fill="#ffffff" stroke="none" />
    <path d="M 346.83 1901.2  C 342.042 1901.2  338.28 1897.438  338.28 1892.65  C 338.28 1887.862  342.042 1884.1  346.83 1884.1  C 351.618 1884.1  355.38 1887.862  355.38 1892.65  C 355.38 1897.438  351.618 1901.2  346.83 1901.2  " fill-rule="nonzero" fill="#cccccc" stroke="none" />
    <path d="M 290 1970  L 290 1919.4  L 313 1896.4  L 345.2 1914.8  L 363.6 1910.2  L 382 1914.8  L 382 1970  L 290 1970  " fill-rule="nonzero" fill="#169bd5" stroke="none" />
  </g>
</svg>