<?xml version="1.0" encoding="utf-8"?>
<svg version="1.1" xmlns:xlink="http://www.w3.org/1999/xlink" width="245px" height="34px" viewBox="142 562  245 34" xmlns="http://www.w3.org/2000/svg">
  <path d="M 143 565  A 2 2 0 0 1 145 563 L 384 563  A 2 2 0 0 1 386 565 L 386 593  A 2 2 0 0 1 384 595 L 145 595  A 2 2 0 0 1 143 593 L 143 565  Z " fill-rule="nonzero" fill="#f0f0f0" stroke="none" />
  <path d="M 142.5 565  A 2.5 2.5 0 0 1 145 562.5 L 384 562.5  A 2.5 2.5 0 0 1 386.5 565 L 386.5 593  A 2.5 2.5 0 0 1 384 595.5 L 145 595.5  A 2.5 2.5 0 0 1 142.5 593 L 142.5 565  Z " stroke-width="1" stroke="#d7d7d7" fill="none" stroke-opacity="0.996078431372549" />
</svg>