<?xml version="1.0" encoding="utf-8"?>
<svg version="1.1" xmlns:xlink="http://www.w3.org/1999/xlink" width="40px" height="40px" xmlns="http://www.w3.org/2000/svg">
  <defs>
    <mask fill="white" id="clip32">
      <path d="M 63 1616  C 51.9 1616  43 1607.1  43 1596  L 43 1596  C 43 1584.9  51.9 1576  63 1576  L 63 1576  C 74.1 1576  83 1584.9  83 1596  L 83 1596  C 83 1607.1  74.1 1616  63 1616  " fill-rule="evenodd" />
    </mask>
  </defs>
  <g transform="matrix(1 0 0 1 -43 -1576 )">
    <path d="M 43 1576  L 83 1576  L 83 1616  L 43 1616  L 43 1576  " fill-rule="nonzero" fill="#cccccc" stroke="none" mask="url(#clip32)" />
    <path d="M 46 1579  L 80 1579  L 80 1613  L 46 1613  L 46 1579  " fill-rule="nonzero" fill="#ffffff" stroke="none" mask="url(#clip32)" />
    <path d="M 66.8 1588  C 65.12 1588  63.8 1586.68  63.8 1585  C 63.8 1583.32  65.12 1582  66.8 1582  C 68.48 1582  69.8 1583.32  69.8 1585  C 69.8 1586.68  68.48 1588  66.8 1588  " fill-rule="nonzero" fill="#cccccc" stroke="none" mask="url(#clip32)" />
    <path d="M 47 1612  L 47 1594.4  L 55 1586.4  L 66.2 1592.8  L 72.6 1591.2  L 79 1592.8  L 79 1612  L 47 1612  " fill-rule="nonzero" fill="#169bd5" stroke="none" mask="url(#clip32)" />
  </g>
</svg>