<?xml version="1.0" encoding="utf-8"?>
<svg version="1.1" xmlns:xlink="http://www.w3.org/1999/xlink" width="914px" height="140px" viewBox="122 107  914 140" xmlns="http://www.w3.org/2000/svg">
  <path d="M 123 110  A 2 2 0 0 1 125 108 L 1033 108  A 2 2 0 0 1 1035 110 L 1035 244  A 2 2 0 0 1 1033 246 L 125 246  A 2 2 0 0 1 123 244 L 123 110  Z " fill-rule="nonzero" fill="#ffffff" stroke="none" />
  <path d="M 122.5 110  A 2.5 2.5 0 0 1 125 107.5 L 1033 107.5  A 2.5 2.5 0 0 1 1035.5 110 L 1035.5 244  A 2.5 2.5 0 0 1 1033 246.5 L 125 246.5  A 2.5 2.5 0 0 1 122.5 244 L 122.5 110  Z " stroke-width="1" stroke="#d7d7d7" fill="none" stroke-opacity="0.996078431372549" />
</svg>