<?xml version="1.0" encoding="utf-8"?>
<svg version="1.1" xmlns:xlink="http://www.w3.org/1999/xlink" width="47px" height="20px" xmlns="http://www.w3.org/2000/svg">
  <g transform="matrix(1 0 0 1 -198 -108 )">
    <path d="M 199 111  A 2 2 0 0 1 201 109 L 242 109  A 2 2 0 0 1 244 111 L 244 125  A 2 2 0 0 1 242 127 L 201 127  A 2 2 0 0 1 199 125 L 199 111  Z " fill-rule="nonzero" fill="#f5f5f5" stroke="none" fill-opacity="0" />
    <path d="M 198.5 111  A 2.5 2.5 0 0 1 201 108.5 L 242 108.5  A 2.5 2.5 0 0 1 244.5 111 L 244.5 125  A 2.5 2.5 0 0 1 242 127.5 L 201 127.5  A 2.5 2.5 0 0 1 198.5 125 L 198.5 111  Z " stroke-width="1" stroke="#797979" fill="none" stroke-opacity="0.498039215686275" />
  </g>
</svg>