<?xml version="1.0" standalone="no"?><!DOCTYPE svg PUBLIC "-//W3C//DTD SVG 1.1//EN" "http://www.w3.org/Graphics/SVG/1.1/DTD/svg11.dtd"><svg t="1680144209039" class="icon" viewBox="0 0 1024 1024" version="1.1" xmlns="http://www.w3.org/2000/svg" p-id="2373" xmlns:xlink="http://www.w3.org/1999/xlink" width="30" height="30"><path d="M797.70039 275.158162c0-3.397014 2.797541-6.194556 6.194556-6.194556h115.898136c22.580154 0.099912 40.66426 18.28393 40.66426 40.66426v407.14216c-0.299737 5.195434-0.499561 104.807884-0.599473 162.65704 0 12.888672-16.485511 18.184018-24.078837 7.793151l-88.022636-120.494097c-4.296224-5.894819-11.290077-9.491658-18.583667-9.491658h-490.568836c-25.877256 0-46.858815-20.981559-46.858815-46.858816v-28.375061c0-3.397014 2.797541-6.194556 6.194555-6.194555h469.687189c16.585423 0 29.973656-13.388233 29.973656-29.973656v-370.674212z" fill="#ffffff" p-id="2374"></path><path d="M721.267568 159.060201c-7.793151-7.893063-18.483755-12.289199-29.474095-12.289199h-584.486292c-11.190165 0-21.880769 4.396136-29.773831 12.289199-7.893063 7.893063-12.289199 18.583667-12.289199 29.773832v387.259635c0 17.484633 0.299737 103.608937 0.399648 155.163625 0 10.390867 12.389111 15.786125 20.08235 8.792273l112.601034-118.79559c8.592448-7.893063 19.782613-12.289199 31.472339-12.289199h463.092985c22.480242 0 40.66426-18.184018 40.66426-40.66426v-379.666309c0-11.090253-4.396136-21.680944-12.289199-29.574007z" fill="#ffffff" p-id="2375"></path></svg>